<svg width="1080" height="1080" viewBox="0 0 1080 1080" fill="none" xmlns="http://www.w3.org/2000/svg">
<g clip-path="url(#clip0_15_2)">
<rect width="1080" height="1080" fill="white"/>
<rect width="1080" height="1080" fill="black"/>
<g opacity="0.8" clip-path="url(#clip1_15_2)">
<path d="M1080 0H0V1080H1080V0Z" fill="#05085A" fill-opacity="0.31121"/>
<mask id="mask0_15_2" style="mask-type:luminance" maskUnits="userSpaceOnUse" x="0" y="0" width="1080" height="1080">
<path d="M1080 0H0V1080H1080V0Z" fill="white"/>
</mask>
<g mask="url(#mask0_15_2)">
<g filter="url(#filter0_f_15_2)">
<path d="M450.782 340.85H91V643.807H450.782V340.85Z" fill="black"/>
<path d="M650 175H262.136V593.589H650V175Z" fill="#907CFF"/>
</g>
</g>
</g>
<g opacity="0.4" filter="url(#filter1_f_15_2)">
<path d="M741.019 360.71C722.829 370.083 704.539 379.266 686.173 388.289C687.688 397.084 688.48 406.122 688.48 415.343C688.48 502.993 617.179 574.294 529.529 574.294C478.962 574.294 433.839 550.56 404.714 513.645C385.701 521.267 366.611 528.707 347.446 535.94C355.433 547.963 364.692 559.286 375.139 569.733C416.379 610.973 471.21 633.686 529.529 633.686C587.848 633.686 642.679 610.973 683.919 569.733C725.159 528.493 747.872 473.662 747.872 415.343C747.872 396.657 745.542 378.337 741.019 360.71Z" fill="url(#paint0_radial_15_2)"/>
</g>
<path d="M741.019 360.71C722.829 370.083 704.539 379.266 686.173 388.289C687.688 397.084 688.48 406.122 688.48 415.343C688.48 502.993 617.179 574.294 529.529 574.294C478.962 574.294 433.839 550.56 404.714 513.645C385.701 521.267 366.611 528.707 347.446 535.94C355.433 547.963 364.692 559.286 375.139 569.733C416.379 610.973 471.21 633.686 529.529 633.686C587.848 633.686 642.679 610.973 683.919 569.733C725.159 528.493 747.872 473.662 747.872 415.343C747.872 396.657 745.542 378.337 741.019 360.71Z" fill="url(#paint1_radial_15_2)"/>
<path opacity="0.8" d="M529.155 269.72C448.961 269.72 383.714 334.967 383.714 415.161C383.714 438.144 389.075 459.893 398.602 479.235C401.595 477.841 404.595 476.448 407.588 475.062C398.64 456.991 393.614 436.651 393.614 415.161C393.614 340.427 454.421 279.62 529.155 279.62C586.154 279.62 635.051 314.985 655.041 364.925C658.071 363.622 661.11 362.328 664.148 361.041C642.643 307.568 590.236 269.72 529.155 269.72ZM673.104 394.311C669.974 395.834 666.852 397.35 663.722 398.865C664.369 404.211 664.697 409.648 664.697 415.161C664.697 489.896 603.898 550.703 529.155 550.703C488.498 550.703 451.961 532.701 427.09 504.258C423.876 505.576 420.663 506.885 417.442 508.188C444.14 540.201 484.31 560.602 529.155 560.602C609.358 560.602 674.596 495.356 674.596 415.161C674.596 408.087 674.086 401.127 673.104 394.311Z" fill="white"/>
<path d="M770.006 317.46C757.275 322.584 744.559 327.77 731.866 333.001C721.297 337.356 710.743 341.742 700.205 346.151C692.454 349.395 684.702 352.661 676.966 355.936C653.384 297.632 596.185 256.392 529.528 256.392C441.886 256.392 370.577 327.701 370.577 415.343C370.577 440.364 376.387 464.053 386.735 485.129C380.575 488 374.423 490.886 368.278 493.787C356.475 499.345 344.696 504.942 332.932 510.584C323.162 515.267 313.408 519.973 303.669 524.717C320.87 512.594 320.665 493.406 319.043 473.761C313.865 454.969 311.185 435.369 311.185 415.343C311.185 357.024 333.899 302.193 375.138 260.953C416.378 219.714 471.209 197 529.528 197C587.847 197 642.678 219.714 683.918 260.953C694.624 271.659 704.088 283.286 712.221 295.652C727.381 313.95 746.607 323.841 770.006 317.46Z" fill="white"/>
<g opacity="0.5" filter="url(#filter2_f_15_2)">
<path d="M879 275.162C846.227 292.249 813.219 308.856 780.028 325.082C765.614 332.133 751.169 339.115 736.686 346.029C718.625 354.664 700.518 363.2 682.373 371.652C678.231 373.586 674.088 375.512 669.946 377.431C666.908 378.84 663.87 380.248 660.824 381.649C621.313 399.909 581.642 417.825 541.917 435.582C500.244 453.994 458.471 472.253 416.546 490.124C413.462 491.442 410.379 492.751 407.295 494.061C403.092 495.85 398.888 497.624 394.678 499.406C376.22 507.203 357.733 514.917 339.199 522.524C331.021 525.889 322.836 529.224 314.643 532.544C275.634 548.352 236.443 563.679 197 578.368C232.3 559.979 267.883 542.138 303.67 524.717C313.409 519.973 323.163 515.267 332.932 510.584C344.697 504.942 356.476 499.345 368.279 493.787C374.423 490.886 380.576 488 386.736 485.129C390.817 483.218 394.898 481.314 398.987 479.411C401.98 478.017 404.98 476.624 407.972 475.238C449.867 455.821 491.936 436.793 534.075 417.947C574.408 400.114 614.825 382.434 655.403 365.111C658.433 363.809 661.471 362.514 664.509 361.228C668.659 359.453 672.809 357.694 676.967 355.936C684.703 352.661 692.454 349.395 700.206 346.151C710.744 341.742 721.298 337.356 731.867 333.001C744.56 327.77 757.276 322.584 770.007 317.46C806.153 302.894 842.473 288.746 879 275.162Z" fill="white"/>
</g>
<path d="M879 275.162C846.227 292.249 813.219 308.856 780.028 325.082C765.614 332.133 751.169 339.115 736.686 346.029C718.625 354.664 700.518 363.2 682.373 371.652C678.231 373.586 674.088 375.512 669.946 377.431C666.908 378.84 663.87 380.248 660.824 381.649C621.313 399.909 581.642 417.825 541.917 435.582C500.244 453.994 458.471 472.253 416.546 490.124C413.462 491.442 410.379 492.751 407.295 494.061C403.092 495.85 398.888 497.624 394.678 499.406C376.22 507.203 357.733 514.917 339.199 522.524C331.021 525.889 322.836 529.224 314.643 532.544C275.634 548.352 236.443 563.679 197 578.368C232.3 559.979 267.883 542.138 303.67 524.717C313.409 519.973 323.163 515.267 332.932 510.584C344.697 504.942 356.476 499.345 368.279 493.787C374.423 490.886 380.576 488 386.736 485.129C390.817 483.218 394.898 481.314 398.987 479.411C401.98 478.017 404.98 476.624 407.972 475.238C449.867 455.821 491.936 436.793 534.075 417.947C574.408 400.114 614.825 382.434 655.403 365.111C658.433 363.809 661.471 362.514 664.509 361.228C668.659 359.453 672.809 357.694 676.967 355.936C684.703 352.661 692.454 349.395 700.206 346.151C710.744 341.742 721.298 337.356 731.867 333.001C744.56 327.77 757.276 322.584 770.007 317.46C806.153 302.894 842.473 288.746 879 275.162Z" fill="white"/>
<g filter="url(#filter3_f_15_2)">
<path d="M319.746 472.72C326.53 505.065 312.808 519.89 305.099 523.259C320.26 522.136 351.275 515.173 354.05 496.305C356.826 477.437 327.455 438.278 312.422 421.058C312.037 424.801 312.962 440.375 319.746 472.72Z" fill="url(#paint2_linear_15_2)"/>
</g>
<g filter="url(#filter4_f_15_2)">
<path d="M704.121 286.85C731.913 328.349 764.587 321.634 771.889 318.45C761.844 328.405 724.098 350.43 709.177 337.654C677.851 310.835 677.32 276.282 672.901 254.108C676.07 256.348 685.216 258.623 704.121 286.85Z" fill="url(#paint3_linear_15_2)"/>
</g>
<path d="M185.548 854.314C211.002 854.314 231.294 838.65 231.294 817.112C231.294 789.878 207.798 783.47 189.998 780.444C177.004 778.13 167.036 775.638 167.036 766.026C167.036 758.728 173.8 754.1 183.59 754.1C195.694 754.1 203.526 759.44 207.442 767.094L229.158 756.236C221.504 739.148 204.416 730.07 184.658 730.07C159.916 730.07 141.048 746.09 141.048 767.094C141.048 794.15 165.434 800.558 183.412 803.584C195.872 805.72 205.306 807.322 205.306 817.29C205.306 825.834 196.762 830.462 185.548 830.462C173.088 830.462 164.722 826.012 160.806 817.29L139.09 828.148C146.744 845.236 164.01 854.314 185.548 854.314ZM311.465 854.314C346.887 854.314 373.943 827.614 373.943 792.192C373.943 756.948 347.065 730.07 311.465 730.07C276.043 730.07 249.165 756.948 249.165 792.192C249.165 827.614 276.043 854.314 311.465 854.314ZM311.465 829.75C291.529 829.75 275.865 813.374 275.865 792.192C275.865 771.01 291.529 754.634 311.465 754.634C331.579 754.634 347.065 771.01 347.065 792.192C347.065 813.374 331.401 829.75 311.465 829.75ZM425.479 732.206H399.491V829.75C399.491 843.456 405.899 852 422.453 852H481.371V827.97H425.479V732.206ZM492.302 852H518.824L525.766 827.614L574.36 827.436L581.302 852H607.824L576.14 749.116C572.046 736.122 561.366 729.892 549.974 729.892C538.76 729.892 528.08 736.122 523.986 749.116L492.302 852ZM546.236 756.77C546.948 754.278 548.194 753.21 550.152 753.21C552.288 753.21 553.356 754.278 554.068 756.77L567.596 804.296H532.53L546.236 756.77ZM670.341 854.314C695.795 854.314 716.087 838.65 716.087 817.112C716.087 789.878 692.591 783.47 674.791 780.444C661.797 778.13 651.828 775.638 651.828 766.026C651.828 758.728 658.592 754.1 668.383 754.1C680.486 754.1 688.318 759.44 692.235 767.094L713.95 756.236C706.297 739.148 689.209 730.07 669.451 730.07C644.708 730.07 625.84 746.09 625.84 767.094C625.84 794.15 650.226 800.558 668.204 803.584C680.665 805.72 690.099 807.322 690.099 817.29C690.099 825.834 681.555 830.462 670.341 830.462C657.881 830.462 649.514 826.012 645.598 817.29L623.882 828.148C631.536 845.236 648.802 854.314 670.341 854.314ZM826.695 732.206H730.219V756.236H765.463V852H791.451V756.236H826.695V732.206ZM828.909 852H855.431L862.373 827.614L910.967 827.436L917.909 852H944.431L912.747 749.116C908.653 736.122 897.973 729.892 886.581 729.892C875.367 729.892 864.687 736.122 860.593 749.116L828.909 852ZM882.843 756.77C883.555 754.278 884.801 753.21 886.759 753.21C888.895 753.21 889.963 754.278 890.675 756.77L904.203 804.296H869.137L882.843 756.77Z" fill="url(#paint4_radial_15_2)"/>
</g>
<defs>
<filter id="filter0_f_15_2" x="-284" y="-200" width="1309" height="1218.81" filterUnits="userSpaceOnUse" color-interpolation-filters="sRGB">
<feFlood flood-opacity="0" result="BackgroundImageFix"/>
<feBlend mode="normal" in="SourceGraphic" in2="BackgroundImageFix" result="shape"/>
<feGaussianBlur stdDeviation="187.5" result="effect1_foregroundBlur_15_2"/>
</filter>
<filter id="filter1_f_15_2" x="322.446" y="335.71" width="450.427" height="322.977" filterUnits="userSpaceOnUse" color-interpolation-filters="sRGB">
<feFlood flood-opacity="0" result="BackgroundImageFix"/>
<feBlend mode="normal" in="SourceGraphic" in2="BackgroundImageFix" result="shape"/>
<feGaussianBlur stdDeviation="12.5" result="effect1_foregroundBlur_15_2"/>
</filter>
<filter id="filter2_f_15_2" x="171" y="249.162" width="734" height="355.206" filterUnits="userSpaceOnUse" color-interpolation-filters="sRGB">
<feFlood flood-opacity="0" result="BackgroundImageFix"/>
<feBlend mode="normal" in="SourceGraphic" in2="BackgroundImageFix" result="shape"/>
<feGaussianBlur stdDeviation="13" result="effect1_foregroundBlur_15_2"/>
</filter>
<filter id="filter3_f_15_2" x="274.099" y="390.058" width="111.135" height="164.202" filterUnits="userSpaceOnUse" color-interpolation-filters="sRGB">
<feFlood flood-opacity="0" result="BackgroundImageFix"/>
<feBlend mode="normal" in="SourceGraphic" in2="BackgroundImageFix" result="shape"/>
<feGaussianBlur stdDeviation="15.5" result="effect1_foregroundBlur_15_2"/>
</filter>
<filter id="filter4_f_15_2" x="642.901" y="224.108" width="158.987" height="147.426" filterUnits="userSpaceOnUse" color-interpolation-filters="sRGB">
<feFlood flood-opacity="0" result="BackgroundImageFix"/>
<feBlend mode="normal" in="SourceGraphic" in2="BackgroundImageFix" result="shape"/>
<feGaussianBlur stdDeviation="15" result="effect1_foregroundBlur_15_2"/>
</filter>
<radialGradient id="paint0_radial_15_2" cx="0" cy="0" r="1" gradientUnits="userSpaceOnUse" gradientTransform="translate(625.5 616) rotate(-116.494) scale(358.666 343.5)">
<stop stop-color="white"/>
<stop offset="1" stop-color="white" stop-opacity="0"/>
</radialGradient>
<radialGradient id="paint1_radial_15_2" cx="0" cy="0" r="1" gradientUnits="userSpaceOnUse" gradientTransform="translate(631.404 647.713) rotate(-113.962) scale(408.856 511.425)">
<stop stop-color="white"/>
<stop offset="1" stop-color="white" stop-opacity="0.31"/>
</radialGradient>
<linearGradient id="paint2_linear_15_2" x1="342" y1="523" x2="305" y2="383" gradientUnits="userSpaceOnUse">
<stop stop-color="white"/>
<stop offset="1" stop-color="white" stop-opacity="0"/>
</linearGradient>
<linearGradient id="paint3_linear_15_2" x1="720" y1="342.5" x2="684" y2="274.5" gradientUnits="userSpaceOnUse">
<stop stop-color="white"/>
<stop offset="1" stop-color="white" stop-opacity="0"/>
</linearGradient>
<radialGradient id="paint4_radial_15_2" cx="0" cy="0" r="1" gradientUnits="userSpaceOnUse" gradientTransform="translate(530 724) rotate(89.124) scale(327.038 471.332)">
<stop stop-color="white"/>
<stop offset="1" stop-color="white" stop-opacity="0.41"/>
</radialGradient>
<clipPath id="clip0_15_2">
<rect width="1080" height="1080" fill="white"/>
</clipPath>
<clipPath id="clip1_15_2">
<rect width="1080" height="1080" fill="white"/>
</clipPath>
</defs>
</svg>
