<svg width="1080" height="1080" viewBox="0 0 1080 1080" fill="none" xmlns="http://www.w3.org/2000/svg">
<g clip-path="url(#clip0_4_57)">
<rect width="1080" height="1080" fill="white"/>
<rect width="1080" height="1080" fill="black"/>
<g opacity="0.8" clip-path="url(#clip1_4_57)">
<path d="M1080 0H0V1080H1080V0Z" fill="#05085A" fill-opacity="0.31121"/>
<mask id="mask0_4_57" style="mask-type:luminance" maskUnits="userSpaceOnUse" x="0" y="0" width="1080" height="1080">
<path d="M1080 0H0V1080H1080V0Z" fill="white"/>
</mask>
<g mask="url(#mask0_4_57)">
<g filter="url(#filter0_f_4_57)">
<path d="M450.782 340.85H91V643.807H450.782V340.85Z" fill="black"/>
<path d="M650 175H262.136V593.589H650V175Z" fill="#907CFF"/>
</g>
</g>
</g>
<g filter="url(#filter1_f_4_57)">
<path d="M469.284 478.206H443.296V575.75C443.296 589.456 449.704 598 466.258 598H525.176V573.97H469.284V478.206ZM536.106 598H562.628L569.57 573.614L618.164 573.436L625.106 598H651.628L619.944 495.116C615.85 482.122 605.17 475.892 593.778 475.892C582.564 475.892 571.884 482.122 567.79 495.116L536.106 598ZM590.04 502.77C590.752 500.278 591.998 499.21 593.956 499.21C596.092 499.21 597.16 500.278 597.872 502.77L611.4 550.296H576.334L590.04 502.77ZM714.145 600.314C739.599 600.314 759.891 584.65 759.891 563.112C759.891 535.878 736.395 529.47 718.595 526.444C705.601 524.13 695.633 521.638 695.633 512.026C695.633 504.728 702.397 500.1 712.187 500.1C724.291 500.1 732.123 505.44 736.039 513.094L757.755 502.236C750.101 485.148 733.013 476.07 713.255 476.07C688.513 476.07 669.645 492.09 669.645 513.094C669.645 540.15 694.031 546.558 712.009 549.584C724.469 551.72 733.903 553.322 733.903 563.29C733.903 571.834 725.359 576.462 714.145 576.462C701.685 576.462 693.319 572.012 689.403 563.29L667.687 574.148C675.341 591.236 692.607 600.314 714.145 600.314ZM870.5 478.206H774.024V502.236H809.268V598H835.256V502.236H870.5V478.206ZM872.714 598H899.236L906.178 573.614L954.772 573.436L961.714 598H988.236L956.552 495.116C952.458 482.122 941.778 475.892 930.386 475.892C919.172 475.892 908.492 482.122 904.398 495.116L872.714 598ZM926.648 502.77C927.36 500.278 928.606 499.21 930.564 499.21C932.7 499.21 933.768 500.278 934.48 502.77L948.008 550.296H912.942L926.648 502.77Z" fill="url(#paint0_radial_4_57)"/>
</g>
<path d="M469.284 478.206H443.296V575.75C443.296 589.456 449.704 598 466.258 598H525.176V573.97H469.284V478.206ZM536.106 598H562.628L569.57 573.614L618.164 573.436L625.106 598H651.628L619.944 495.116C615.85 482.122 605.17 475.892 593.778 475.892C582.564 475.892 571.884 482.122 567.79 495.116L536.106 598ZM590.04 502.77C590.752 500.278 591.998 499.21 593.956 499.21C596.092 499.21 597.16 500.278 597.872 502.77L611.4 550.296H576.334L590.04 502.77ZM714.145 600.314C739.599 600.314 759.891 584.65 759.891 563.112C759.891 535.878 736.395 529.47 718.595 526.444C705.601 524.13 695.633 521.638 695.633 512.026C695.633 504.728 702.397 500.1 712.187 500.1C724.291 500.1 732.123 505.44 736.039 513.094L757.755 502.236C750.101 485.148 733.013 476.07 713.255 476.07C688.513 476.07 669.645 492.09 669.645 513.094C669.645 540.15 694.031 546.558 712.009 549.584C724.469 551.72 733.903 553.322 733.903 563.29C733.903 571.834 725.359 576.462 714.145 576.462C701.685 576.462 693.319 572.012 689.403 563.29L667.687 574.148C675.341 591.236 692.607 600.314 714.145 600.314ZM870.5 478.206H774.024V502.236H809.268V598H835.256V502.236H870.5V478.206ZM872.714 598H899.236L906.178 573.614L954.772 573.436L961.714 598H988.236L956.552 495.116C952.458 482.122 941.778 475.892 930.386 475.892C919.172 475.892 908.492 482.122 904.398 495.116L872.714 598ZM926.648 502.77C927.36 500.278 928.606 499.21 930.564 499.21C932.7 499.21 933.768 500.278 934.48 502.77L948.008 550.296H912.942L926.648 502.77Z" fill="url(#paint1_radial_4_57)"/>
<g filter="url(#filter2_f_4_57)">
<path d="M164.321 600.314C189.775 600.314 210.067 584.65 210.067 563.112C210.067 535.878 186.571 529.47 168.771 526.444C155.777 524.13 145.809 521.638 145.809 512.026C145.809 504.728 152.573 500.1 162.363 500.1C174.467 500.1 182.299 505.44 186.215 513.094L207.931 502.236C200.277 485.148 183.189 476.07 163.431 476.07C138.689 476.07 119.821 492.09 119.821 513.094C119.821 540.15 144.207 546.558 162.185 549.584C174.645 551.72 184.079 553.322 184.079 563.29C184.079 571.834 175.535 576.462 164.321 576.462C151.861 576.462 143.495 572.012 139.579 563.29L117.863 574.148C125.517 591.236 142.783 600.314 164.321 600.314Z" fill="url(#paint2_radial_4_57)"/>
</g>
<path d="M164.321 600.314C189.775 600.314 210.067 584.65 210.067 563.112C210.067 535.878 186.571 529.47 168.771 526.444C155.777 524.13 145.809 521.638 145.809 512.026C145.809 504.728 152.573 500.1 162.363 500.1C174.467 500.1 182.299 505.44 186.215 513.094L207.931 502.236C200.277 485.148 183.189 476.07 163.431 476.07C138.689 476.07 119.821 492.09 119.821 513.094C119.821 540.15 144.207 546.558 162.185 549.584C174.645 551.72 184.079 553.322 184.079 563.29C184.079 571.834 175.535 576.462 164.321 576.462C151.861 576.462 143.495 572.012 139.579 563.29L117.863 574.148C125.517 591.236 142.783 600.314 164.321 600.314Z" fill="url(#paint3_radial_4_57)"/>
<g opacity="0.4" filter="url(#filter3_f_4_57)">
<path d="M388.182 520.61C382.558 523.508 376.904 526.347 371.226 529.136C371.694 531.855 371.939 534.649 371.939 537.5C371.939 564.597 349.897 586.639 322.8 586.639C307.167 586.639 293.218 579.302 284.214 567.89C278.336 570.246 272.435 572.546 266.51 574.782C268.979 578.499 271.841 581.999 275.071 585.229C287.82 597.978 304.771 605 322.8 605C340.829 605 357.78 597.978 370.529 585.229C383.278 572.48 390.3 555.529 390.3 537.5C390.3 531.723 389.58 526.06 388.182 520.61Z" fill="url(#paint4_radial_4_57)"/>
</g>
<path d="M388.182 520.61C382.558 523.508 376.904 526.347 371.226 529.136C371.694 531.855 371.939 534.649 371.939 537.5C371.939 564.597 349.897 586.639 322.8 586.639C307.167 586.639 293.218 579.302 284.214 567.89C278.336 570.246 272.435 572.546 266.51 574.782C268.979 578.499 271.841 581.999 275.071 585.229C287.82 597.978 304.771 605 322.8 605C340.829 605 357.78 597.978 370.529 585.229C383.278 572.48 390.3 555.529 390.3 537.5C390.3 531.723 389.58 526.06 388.182 520.61Z" fill="url(#paint5_radial_4_57)"/>
<path opacity="0.8" d="M322.685 492.481C297.893 492.481 277.723 512.652 277.723 537.444C277.723 544.549 279.38 551.272 282.325 557.252C283.25 556.821 284.178 556.39 285.103 555.962C282.337 550.375 280.783 544.087 280.783 537.444C280.783 514.34 299.581 495.542 322.685 495.542C340.306 495.542 355.422 506.475 361.602 521.913C362.539 521.511 363.478 521.11 364.418 520.713C357.77 504.182 341.568 492.481 322.685 492.481ZM367.186 530.998C366.219 531.469 365.254 531.937 364.286 532.406C364.486 534.058 364.587 535.739 364.587 537.444C364.587 560.548 345.791 579.346 322.685 579.346C310.116 579.346 298.821 573.781 291.132 564.988C290.139 565.395 289.145 565.8 288.149 566.202C296.403 576.099 308.821 582.406 322.685 582.406C347.479 582.406 367.648 562.236 367.648 537.444C367.648 535.257 367.49 533.105 367.186 530.998Z" fill="white"/>
<path d="M397.143 507.24C393.207 508.824 389.276 510.427 385.352 512.044C382.085 513.391 378.822 514.747 375.564 516.11C373.168 517.112 370.771 518.122 368.38 519.134C361.09 501.11 343.407 488.361 322.8 488.361C295.706 488.361 273.661 510.406 273.661 537.5C273.661 545.235 275.457 552.558 278.656 559.074C276.752 559.962 274.85 560.854 272.95 561.751C269.301 563.469 265.66 565.199 262.023 566.943C259.003 568.391 255.987 569.846 252.977 571.312C258.294 567.565 258.231 561.633 257.729 555.56C256.129 549.75 255.3 543.691 255.3 537.5C255.3 519.471 262.322 502.52 275.071 489.771C287.82 477.022 304.771 470 322.8 470C340.829 470 357.78 477.022 370.529 489.771C373.839 493.081 376.765 496.675 379.279 500.498C383.965 506.155 389.909 509.212 397.143 507.24Z" fill="white"/>
<g opacity="0.5" filter="url(#filter4_f_4_57)">
<path d="M430.838 494.163C420.706 499.446 410.502 504.58 400.241 509.596C395.785 511.776 391.319 513.934 386.842 516.072C381.258 518.741 375.661 521.38 370.051 523.993C368.771 524.591 367.49 525.186 366.21 525.78C365.27 526.215 364.331 526.651 363.39 527.084C351.175 532.729 338.911 538.267 326.63 543.757C313.747 549.449 300.833 555.094 287.872 560.618C286.919 561.026 285.965 561.43 285.012 561.835C283.712 562.389 282.413 562.937 281.111 563.488C275.405 565.898 269.69 568.283 263.96 570.634C261.432 571.675 258.902 572.706 256.369 573.732C244.309 578.619 232.194 583.358 220 587.898C230.913 582.214 241.913 576.698 252.977 571.312C255.987 569.846 259.003 568.391 262.023 566.943C265.66 565.199 269.301 563.469 272.95 561.751C274.85 560.854 276.752 559.962 278.656 559.074C279.918 558.483 281.18 557.895 282.444 557.306C283.369 556.876 284.296 556.445 285.221 556.016C298.173 550.014 311.179 544.131 324.205 538.305C336.674 532.792 349.169 527.326 361.713 521.971C362.65 521.568 363.59 521.168 364.529 520.77C365.812 520.222 367.095 519.678 368.38 519.134C370.772 518.122 373.168 517.112 375.564 516.11C378.822 514.747 382.085 513.391 385.352 512.044C389.276 510.427 393.207 508.824 397.143 507.24C408.317 502.737 419.546 498.363 430.838 494.163Z" fill="white"/>
</g>
<path d="M430.838 494.163C420.706 499.446 410.502 504.58 400.241 509.596C395.785 511.776 391.319 513.934 386.842 516.072C381.258 518.741 375.661 521.38 370.051 523.993C368.771 524.591 367.49 525.186 366.21 525.78C365.27 526.215 364.331 526.651 363.39 527.084C351.175 532.729 338.911 538.267 326.63 543.757C313.747 549.449 300.833 555.094 287.872 560.618C286.919 561.026 285.965 561.43 285.012 561.835C283.712 562.389 282.413 562.937 281.111 563.488C275.405 565.898 269.69 568.283 263.96 570.634C261.432 571.675 258.902 572.706 256.369 573.732C244.309 578.619 232.194 583.358 220 587.898C230.913 582.214 241.913 576.698 252.977 571.312C255.987 569.846 259.003 568.391 262.023 566.943C265.66 565.199 269.301 563.469 272.95 561.751C274.85 560.854 276.752 559.962 278.656 559.074C279.918 558.483 281.18 557.895 282.444 557.306C283.369 556.876 284.296 556.445 285.221 556.016C298.173 550.014 311.179 544.131 324.205 538.305C336.674 532.792 349.169 527.326 361.713 521.971C362.65 521.568 363.59 521.168 364.529 520.77C365.812 520.222 367.095 519.678 368.38 519.134C370.772 518.122 373.168 517.112 375.564 516.11C378.822 514.747 382.085 513.391 385.352 512.044C389.276 510.427 393.207 508.824 397.143 507.24C408.317 502.737 419.546 498.363 430.838 494.163Z" fill="white"/>
<g filter="url(#filter5_f_4_57)">
<path d="M257.947 555.238C260.044 565.237 255.802 569.82 253.418 570.862C258.105 570.515 267.694 568.362 268.552 562.529C269.41 556.696 260.33 544.59 255.682 539.267C255.563 540.424 255.849 545.238 257.947 555.238Z" fill="url(#paint6_linear_4_57)"/>
</g>
<g filter="url(#filter6_f_4_57)">
<path d="M376.775 497.777C385.367 510.606 395.468 508.53 397.725 507.546C394.62 510.624 382.951 517.432 378.338 513.483C368.653 505.192 368.489 494.51 367.123 487.655C368.103 488.347 370.93 489.05 376.775 497.777Z" fill="url(#paint7_linear_4_57)"/>
</g>
</g>
<defs>
<filter id="filter0_f_4_57" x="-284" y="-200" width="1309" height="1218.81" filterUnits="userSpaceOnUse" color-interpolation-filters="sRGB">
<feFlood flood-opacity="0" result="BackgroundImageFix"/>
<feBlend mode="normal" in="SourceGraphic" in2="BackgroundImageFix" result="shape"/>
<feGaussianBlur stdDeviation="187.5" result="effect1_foregroundBlur_4_57"/>
</filter>
<filter id="filter1_f_4_57" x="428.295" y="460.892" width="574.94" height="154.422" filterUnits="userSpaceOnUse" color-interpolation-filters="sRGB">
<feFlood flood-opacity="0" result="BackgroundImageFix"/>
<feBlend mode="normal" in="SourceGraphic" in2="BackgroundImageFix" result="shape"/>
<feGaussianBlur stdDeviation="7.5" result="effect1_foregroundBlur_4_57"/>
</filter>
<filter id="filter2_f_4_57" x="102.862" y="461.07" width="122.204" height="154.244" filterUnits="userSpaceOnUse" color-interpolation-filters="sRGB">
<feFlood flood-opacity="0" result="BackgroundImageFix"/>
<feBlend mode="normal" in="SourceGraphic" in2="BackgroundImageFix" result="shape"/>
<feGaussianBlur stdDeviation="7.5" result="effect1_foregroundBlur_4_57"/>
</filter>
<filter id="filter3_f_4_57" x="258.51" y="512.61" width="139.791" height="100.39" filterUnits="userSpaceOnUse" color-interpolation-filters="sRGB">
<feFlood flood-opacity="0" result="BackgroundImageFix"/>
<feBlend mode="normal" in="SourceGraphic" in2="BackgroundImageFix" result="shape"/>
<feGaussianBlur stdDeviation="4" result="effect1_foregroundBlur_4_57"/>
</filter>
<filter id="filter4_f_4_57" x="215" y="489.163" width="220.838" height="103.735" filterUnits="userSpaceOnUse" color-interpolation-filters="sRGB">
<feFlood flood-opacity="0" result="BackgroundImageFix"/>
<feBlend mode="normal" in="SourceGraphic" in2="BackgroundImageFix" result="shape"/>
<feGaussianBlur stdDeviation="2.5" result="effect1_foregroundBlur_4_57"/>
</filter>
<filter id="filter5_f_4_57" x="248.418" y="534.267" width="25.1899" height="41.5953" filterUnits="userSpaceOnUse" color-interpolation-filters="sRGB">
<feFlood flood-opacity="0" result="BackgroundImageFix"/>
<feBlend mode="normal" in="SourceGraphic" in2="BackgroundImageFix" result="shape"/>
<feGaussianBlur stdDeviation="2.5" result="effect1_foregroundBlur_4_57"/>
</filter>
<filter id="filter6_f_4_57" x="362.124" y="482.655" width="40.6016" height="37.0275" filterUnits="userSpaceOnUse" color-interpolation-filters="sRGB">
<feFlood flood-opacity="0" result="BackgroundImageFix"/>
<feBlend mode="normal" in="SourceGraphic" in2="BackgroundImageFix" result="shape"/>
<feGaussianBlur stdDeviation="2.5" result="effect1_foregroundBlur_4_57"/>
</filter>
<radialGradient id="paint0_radial_4_57" cx="0" cy="0" r="1" gradientUnits="userSpaceOnUse" gradientTransform="translate(145 408) rotate(13.9723) scale(652.3 2104.66)">
<stop stop-color="white"/>
<stop offset="0.808949" stop-color="white" stop-opacity="0"/>
</radialGradient>
<radialGradient id="paint1_radial_4_57" cx="0" cy="0" r="1" gradientUnits="userSpaceOnUse" gradientTransform="translate(430.5 531) rotate(9.38552) scale(613.209 138.148)">
<stop stop-color="white"/>
<stop offset="1" stop-color="white" stop-opacity="0.41"/>
</radialGradient>
<radialGradient id="paint2_radial_4_57" cx="0" cy="0" r="1" gradientUnits="userSpaceOnUse" gradientTransform="translate(239 509) rotate(155.45) scale(133.576 135.147)">
<stop stop-color="white"/>
<stop offset="1" stop-color="white" stop-opacity="0"/>
</radialGradient>
<radialGradient id="paint3_radial_4_57" cx="0" cy="0" r="1" gradientUnits="userSpaceOnUse" gradientTransform="translate(211 535) rotate(-178.576) scale(181.056 182.051)">
<stop stop-color="white"/>
<stop offset="1" stop-color="white" stop-opacity="0.15"/>
</radialGradient>
<radialGradient id="paint4_radial_4_57" cx="0" cy="0" r="1" gradientUnits="userSpaceOnUse" gradientTransform="translate(352.469 599.532) rotate(-116.494) scale(110.88 106.192)">
<stop stop-color="white"/>
<stop offset="1" stop-color="white" stop-opacity="0"/>
</radialGradient>
<radialGradient id="paint5_radial_4_57" cx="0" cy="0" r="1" gradientUnits="userSpaceOnUse" gradientTransform="translate(354.295 609.336) rotate(-113.962) scale(126.396 158.105)">
<stop stop-color="white"/>
<stop offset="1" stop-color="white" stop-opacity="0.31"/>
</radialGradient>
<linearGradient id="paint6_linear_4_57" x1="264.826" y1="570.782" x2="253.388" y2="527.501" gradientUnits="userSpaceOnUse">
<stop stop-color="white"/>
<stop offset="1" stop-color="white" stop-opacity="0"/>
</linearGradient>
<linearGradient id="paint7_linear_4_57" x1="381.684" y1="514.981" x2="370.554" y2="493.959" gradientUnits="userSpaceOnUse">
<stop stop-color="white"/>
<stop offset="1" stop-color="white" stop-opacity="0"/>
</linearGradient>
<clipPath id="clip0_4_57">
<rect width="1080" height="1080" fill="white"/>
</clipPath>
<clipPath id="clip1_4_57">
<rect width="1080" height="1080" fill="white"/>
</clipPath>
</defs>
</svg>
