<svg width="1080" height="1080" viewBox="0 0 1080 1080" fill="none" xmlns="http://www.w3.org/2000/svg">
<rect width="1080" height="1080" fill="white"/>
<g filter="url(#filter0_d_15_57)">
<path d="M461.284 477.206H435.296V574.75C435.296 588.456 441.704 597 458.258 597H517.176V572.97H461.284V477.206ZM528.106 597H554.628L561.57 572.614L610.164 572.436L617.106 597H643.628L611.944 494.116C607.85 481.122 597.17 474.892 585.778 474.892C574.564 474.892 563.884 481.122 559.79 494.116L528.106 597ZM582.04 501.77C582.752 499.278 583.998 498.21 585.956 498.21C588.092 498.21 589.16 499.278 589.872 501.77L603.4 549.296H568.334L582.04 501.77ZM706.145 599.314C731.599 599.314 751.891 583.65 751.891 562.112C751.891 534.878 728.395 528.47 710.595 525.444C697.601 523.13 687.633 520.638 687.633 511.026C687.633 503.728 694.397 499.1 704.187 499.1C716.291 499.1 724.123 504.44 728.039 512.094L749.755 501.236C742.101 484.148 725.013 475.07 705.255 475.07C680.513 475.07 661.645 491.09 661.645 512.094C661.645 539.15 686.031 545.558 704.009 548.584C716.469 550.72 725.903 552.322 725.903 562.29C725.903 570.834 717.359 575.462 706.145 575.462C693.685 575.462 685.319 571.012 681.403 562.29L659.687 573.148C667.341 590.236 684.607 599.314 706.145 599.314ZM862.5 477.206H766.024V501.236H801.268V597H827.256V501.236H862.5V477.206ZM864.714 597H891.236L898.178 572.614L946.772 572.436L953.714 597H980.236L948.552 494.116C944.458 481.122 933.778 474.892 922.386 474.892C911.172 474.892 900.492 481.122 896.398 494.116L864.714 597ZM918.648 501.77C919.36 499.278 920.606 498.21 922.564 498.21C924.7 498.21 925.768 499.278 926.48 501.77L940.008 549.296H904.942L918.648 501.77Z" fill="url(#paint0_radial_15_57)"/>
<path d="M164.321 599.314C189.775 599.314 210.067 583.65 210.067 562.112C210.067 534.878 186.571 528.47 168.771 525.444C155.777 523.13 145.809 520.638 145.809 511.026C145.809 503.728 152.573 499.1 162.363 499.1C174.467 499.1 182.299 504.44 186.215 512.094L207.931 501.236C200.277 484.148 183.189 475.07 163.431 475.07C138.689 475.07 119.821 491.09 119.821 512.094C119.821 539.15 144.207 545.558 162.185 548.584C174.645 550.72 184.079 552.322 184.079 562.29C184.079 570.834 175.535 575.462 164.321 575.462C151.861 575.462 143.495 571.012 139.579 562.29L117.863 573.148C125.517 590.236 142.783 599.314 164.321 599.314Z" fill="url(#paint1_radial_15_57)"/>
<path d="M385.182 515.61C379.558 518.508 373.904 521.347 368.226 524.136C368.694 526.855 368.939 529.649 368.939 532.5C368.939 559.597 346.897 581.639 319.8 581.639C304.167 581.639 290.218 574.302 281.214 562.89C275.336 565.246 269.435 567.546 263.51 569.782C265.979 573.499 268.841 576.999 272.071 580.229C284.82 592.978 301.771 600 319.8 600C337.829 600 354.78 592.978 367.529 580.229C380.278 567.48 387.3 550.529 387.3 532.5C387.3 526.723 386.58 521.06 385.182 515.61Z" fill="black"/>
<path opacity="0.8" d="M319.685 487.481C294.893 487.481 274.723 507.652 274.723 532.444C274.723 539.549 276.38 546.272 279.325 552.252C280.25 551.821 281.178 551.39 282.103 550.962C279.337 545.375 277.783 539.087 277.783 532.444C277.783 509.34 296.581 490.542 319.685 490.542C337.306 490.542 352.422 501.474 358.602 516.913C359.539 516.511 360.478 516.11 361.418 515.713C354.77 499.181 338.568 487.481 319.685 487.481ZM364.186 525.998C363.219 526.469 362.254 526.937 361.286 527.406C361.486 529.058 361.587 530.739 361.587 532.444C361.587 555.548 342.791 574.346 319.685 574.346C307.116 574.346 295.821 568.781 288.132 559.988C287.139 560.395 286.145 560.8 285.149 561.202C293.403 571.099 305.821 577.406 319.685 577.406C344.479 577.406 364.648 557.236 364.648 532.444C364.648 530.257 364.49 528.105 364.186 525.998Z" fill="black"/>
<path d="M394.143 502.24C390.207 503.824 386.276 505.427 382.352 507.044C379.085 508.391 375.822 509.747 372.564 511.11C370.168 512.112 367.771 513.122 365.38 514.134C358.09 496.11 340.407 483.361 319.8 483.361C292.706 483.361 270.661 505.406 270.661 532.5C270.661 540.235 272.457 547.558 275.656 554.074C273.752 554.962 271.85 555.854 269.95 556.751C266.301 558.469 262.66 560.199 259.023 561.943C256.003 563.391 252.987 564.846 249.977 566.312C255.294 562.565 255.231 556.633 254.729 550.56C253.129 544.75 252.3 538.691 252.3 532.5C252.3 514.471 259.322 497.52 272.071 484.771C284.82 472.022 301.771 465 319.8 465C337.829 465 354.78 472.022 367.529 484.771C370.839 488.081 373.765 491.675 376.279 495.498C380.965 501.155 386.909 504.212 394.143 502.24Z" fill="black"/>
<path d="M427.838 489.163C417.706 494.446 407.502 499.58 397.241 504.596C392.785 506.776 388.319 508.934 383.842 511.072C378.258 513.741 372.661 516.38 367.051 518.993C365.771 519.591 364.49 520.186 363.21 520.78C362.27 521.215 361.331 521.651 360.39 522.084C348.175 527.728 335.911 533.267 323.63 538.757C310.747 544.449 297.833 550.094 284.872 555.618C283.919 556.026 282.965 556.43 282.012 556.835C280.712 557.388 279.413 557.937 278.111 558.488C272.405 560.898 266.69 563.283 260.96 565.634C258.432 566.675 255.902 567.706 253.369 568.732C241.309 573.619 229.194 578.358 217 582.898C227.913 577.214 238.913 571.698 249.977 566.312C252.987 564.846 256.003 563.391 259.023 561.943C262.66 560.199 266.301 558.469 269.95 556.751C271.85 555.854 273.752 554.962 275.656 554.074C276.918 553.483 278.18 552.895 279.444 552.306C280.369 551.875 281.296 551.445 282.221 551.016C295.173 545.014 308.179 539.131 321.205 533.305C333.674 527.792 346.169 522.326 358.713 516.971C359.65 516.568 360.59 516.168 361.529 515.77C362.812 515.222 364.095 514.678 365.38 514.134C367.772 513.122 370.168 512.112 372.564 511.109C375.822 509.747 379.085 508.391 382.352 507.044C386.276 505.427 390.207 503.824 394.143 502.24C405.317 497.737 416.546 493.363 427.838 489.163Z" fill="black"/>
</g>
<defs>
<filter id="filter0_d_15_57" x="115.862" y="463" width="902.373" height="175" filterUnits="userSpaceOnUse" color-interpolation-filters="sRGB">
<feFlood flood-opacity="0" result="BackgroundImageFix"/>
<feColorMatrix in="SourceAlpha" type="matrix" values="0 0 0 0 0 0 0 0 0 0 0 0 0 0 0 0 0 0 127 0" result="hardAlpha"/>
<feOffset dx="18" dy="18"/>
<feGaussianBlur stdDeviation="10"/>
<feComposite in2="hardAlpha" operator="out"/>
<feColorMatrix type="matrix" values="0 0 0 0 0 0 0 0 0 0 0 0 0 0 0 0 0 0 0.25 0"/>
<feBlend mode="normal" in2="BackgroundImageFix" result="effect1_dropShadow_15_57"/>
<feBlend mode="normal" in="SourceGraphic" in2="effect1_dropShadow_15_57" result="shape"/>
</filter>
<radialGradient id="paint0_radial_15_57" cx="0" cy="0" r="1" gradientUnits="userSpaceOnUse" gradientTransform="translate(410 519.5) rotate(4.53251) scale(689.657 2225.19)">
<stop/>
<stop offset="1" stop-opacity="0.63"/>
</radialGradient>
<radialGradient id="paint1_radial_15_57" cx="0" cy="0" r="1" gradientUnits="userSpaceOnUse" gradientTransform="translate(198 532) rotate(-173.373) scale(342.287 346.314)">
<stop/>
<stop offset="1" stop-opacity="0"/>
</radialGradient>
</defs>
</svg>
