<svg width="1080" height="1080" viewBox="0 0 1080 1080" fill="none" xmlns="http://www.w3.org/2000/svg">
<rect width="1080" height="1080" fill="white"/>
<g filter="url(#filter0_d_15_89)">
<path d="M186.548 852.314C212.002 852.314 232.294 836.65 232.294 815.112C232.294 787.878 208.798 781.47 190.998 778.444C178.004 776.13 168.036 773.638 168.036 764.026C168.036 756.728 174.8 752.1 184.59 752.1C196.694 752.1 204.526 757.44 208.442 765.094L230.158 754.236C222.504 737.148 205.416 728.07 185.658 728.07C160.916 728.07 142.048 744.09 142.048 765.094C142.048 792.15 166.434 798.558 184.412 801.584C196.872 803.72 206.306 805.322 206.306 815.29C206.306 823.834 197.762 828.462 186.548 828.462C174.088 828.462 165.722 824.012 161.806 815.29L140.09 826.148C147.744 843.236 165.01 852.314 186.548 852.314ZM312.465 852.314C347.887 852.314 374.943 825.614 374.943 790.192C374.943 754.948 348.065 728.07 312.465 728.07C277.043 728.07 250.165 754.948 250.165 790.192C250.165 825.614 277.043 852.314 312.465 852.314ZM312.465 827.75C292.529 827.75 276.865 811.374 276.865 790.192C276.865 769.01 292.529 752.634 312.465 752.634C332.579 752.634 348.065 769.01 348.065 790.192C348.065 811.374 332.401 827.75 312.465 827.75ZM426.479 730.206H400.491V827.75C400.491 841.456 406.899 850 423.453 850H482.371V825.97H426.479V730.206ZM493.302 850H519.824L526.766 825.614L575.36 825.436L582.302 850H608.824L577.14 747.116C573.046 734.122 562.366 727.892 550.974 727.892C539.76 727.892 529.08 734.122 524.986 747.116L493.302 850ZM547.236 754.77C547.948 752.278 549.194 751.21 551.152 751.21C553.288 751.21 554.356 752.278 555.068 754.77L568.596 802.296H533.53L547.236 754.77ZM671.341 852.314C696.795 852.314 717.087 836.65 717.087 815.112C717.087 787.878 693.591 781.47 675.791 778.444C662.797 776.13 652.828 773.638 652.828 764.026C652.828 756.728 659.592 752.1 669.383 752.1C681.486 752.1 689.318 757.44 693.235 765.094L714.95 754.236C707.297 737.148 690.209 728.07 670.451 728.07C645.708 728.07 626.84 744.09 626.84 765.094C626.84 792.15 651.226 798.558 669.204 801.584C681.665 803.72 691.099 805.322 691.099 815.29C691.099 823.834 682.555 828.462 671.341 828.462C658.881 828.462 650.514 824.012 646.598 815.29L624.882 826.148C632.536 843.236 649.802 852.314 671.341 852.314ZM827.695 730.206H731.219V754.236H766.463V850H792.451V754.236H827.695V730.206ZM829.909 850H856.431L863.373 825.614L911.967 825.436L918.909 850H945.431L913.747 747.116C909.653 734.122 898.973 727.892 887.581 727.892C876.367 727.892 865.687 734.122 861.593 747.116L829.909 850ZM883.843 754.77C884.555 752.278 885.801 751.21 887.759 751.21C889.895 751.21 890.963 752.278 891.675 754.77L905.203 802.296H870.137L883.843 754.77Z" fill="url(#paint0_radial_15_89)"/>
</g>
<g filter="url(#filter1_d_15_89)">
<path d="M756.537 337.699C737.125 347.702 717.608 357.501 698.009 367.13C699.626 376.515 700.471 386.16 700.471 396C700.471 489.533 624.384 565.621 530.85 565.621C476.889 565.621 428.737 540.293 397.657 500.901C377.367 509.035 356.996 516.973 336.544 524.692C345.068 537.523 354.949 549.605 366.097 560.754C410.105 604.762 468.617 629 530.85 629C593.084 629 651.596 604.762 695.604 560.754C739.612 516.746 763.85 458.234 763.85 396C763.85 376.06 761.364 356.51 756.537 337.699Z" fill="url(#paint1_radial_15_89)"/>
<path opacity="0.8" d="M530.454 240.602C444.876 240.602 375.25 310.228 375.25 395.806C375.25 420.331 380.971 443.539 391.137 464.18C394.331 462.693 397.533 461.206 400.726 459.727C391.178 440.443 385.815 418.738 385.815 395.806C385.815 316.054 450.703 251.166 530.454 251.166C591.28 251.166 643.459 288.904 664.79 342.197C668.024 340.807 671.267 339.425 674.509 338.052C651.56 280.989 595.635 240.602 530.454 240.602ZM684.066 373.556C680.726 375.181 677.394 376.798 674.054 378.415C674.745 384.12 675.094 389.922 675.094 395.806C675.094 475.557 610.214 540.445 530.454 540.445C487.068 540.445 448.078 521.235 421.538 490.883C418.109 492.289 414.679 493.687 411.242 495.076C439.733 529.239 482.599 551.01 530.454 551.01C616.04 551.01 685.658 481.384 685.658 395.806C685.658 388.256 685.114 380.829 684.066 373.556Z" fill="black"/>
<path d="M787.471 291.546C773.885 297.015 760.316 302.548 746.77 308.13C735.492 312.778 724.23 317.458 712.984 322.163C704.713 325.625 696.441 329.11 688.185 332.604C663.02 270.387 601.981 226.379 530.85 226.379C437.325 226.379 361.23 302.475 361.23 396C361.23 422.7 367.429 447.979 378.472 470.47C371.899 473.534 365.333 476.613 358.776 479.709C346.181 485.641 333.611 491.613 321.057 497.634C310.632 502.631 300.223 507.653 289.831 512.715C308.186 499.779 307.967 479.303 306.236 458.339C300.711 438.285 297.85 417.37 297.85 396C297.85 333.766 322.089 275.254 366.097 231.246C410.105 187.238 468.617 163 530.85 163C593.084 163 651.596 187.238 695.604 231.246C707.028 242.671 717.128 255.079 725.806 268.275C741.984 287.8 762.501 298.355 787.471 291.546Z" fill="black"/>
<path d="M903.78 246.409C868.808 264.642 833.584 282.364 798.164 299.68C782.783 307.204 767.369 314.655 751.914 322.033C732.64 331.247 713.318 340.356 693.954 349.376C689.534 351.439 685.114 353.495 680.694 355.543C677.451 357.046 674.209 358.549 670.959 360.044C628.796 379.529 586.462 398.649 544.071 417.598C499.6 437.245 455.023 456.73 410.284 475.801C406.993 477.207 403.702 478.604 400.411 480.002C395.926 481.911 391.441 483.804 386.947 485.706C367.251 494.026 347.522 502.258 327.744 510.375C319.018 513.966 310.283 517.525 301.54 521.068C259.912 537.937 218.09 554.294 176 569.968C213.67 550.345 251.641 531.306 289.831 512.715C300.223 507.653 310.632 502.631 321.057 497.634C333.611 491.613 346.181 485.641 358.776 479.709C365.333 476.613 371.899 473.534 378.472 470.47C382.827 468.431 387.183 466.4 391.546 464.368C394.74 462.881 397.941 461.394 401.134 459.915C445.841 439.195 490.735 418.89 535.701 398.779C578.742 379.749 621.873 360.881 665.174 342.396C668.408 341.006 671.65 339.625 674.892 338.252C679.32 336.358 683.749 334.481 688.185 332.604C696.441 329.11 704.713 325.625 712.984 322.163C724.23 317.458 735.492 312.778 746.77 308.13C760.316 302.548 773.885 297.015 787.471 291.546C826.043 276.002 864.802 260.905 903.78 246.409Z" fill="black"/>
</g>
<defs>
<filter id="filter0_d_15_89" x="138.09" y="725.892" width="845.341" height="164.422" filterUnits="userSpaceOnUse" color-interpolation-filters="sRGB">
<feFlood flood-opacity="0" result="BackgroundImageFix"/>
<feColorMatrix in="SourceAlpha" type="matrix" values="0 0 0 0 0 0 0 0 0 0 0 0 0 0 0 0 0 0 127 0" result="hardAlpha"/>
<feOffset dx="18" dy="18"/>
<feGaussianBlur stdDeviation="10"/>
<feComposite in2="hardAlpha" operator="out"/>
<feColorMatrix type="matrix" values="0 0 0 0 0 0 0 0 0 0 0 0 0 0 0 0 0 0 0.26 0"/>
<feBlend mode="normal" in2="BackgroundImageFix" result="effect1_dropShadow_15_89"/>
<feBlend mode="normal" in="SourceGraphic" in2="effect1_dropShadow_15_89" result="shape"/>
</filter>
<filter id="filter1_d_15_89" x="174" y="161" width="767.78" height="506" filterUnits="userSpaceOnUse" color-interpolation-filters="sRGB">
<feFlood flood-opacity="0" result="BackgroundImageFix"/>
<feColorMatrix in="SourceAlpha" type="matrix" values="0 0 0 0 0 0 0 0 0 0 0 0 0 0 0 0 0 0 127 0" result="hardAlpha"/>
<feOffset dx="18" dy="18"/>
<feGaussianBlur stdDeviation="10"/>
<feComposite in2="hardAlpha" operator="out"/>
<feColorMatrix type="matrix" values="0 0 0 0 0 0 0 0 0 0 0 0 0 0 0 0 0 0 0.26 0"/>
<feBlend mode="normal" in2="BackgroundImageFix" result="effect1_dropShadow_15_89"/>
<feBlend mode="normal" in="SourceGraphic" in2="effect1_dropShadow_15_89" result="shape"/>
</filter>
<radialGradient id="paint0_radial_15_89" cx="0" cy="0" r="1" gradientUnits="userSpaceOnUse" gradientTransform="translate(531 722) rotate(88.071) scale(623.854 899.107)">
<stop/>
<stop offset="1" stop-opacity="0.41"/>
</radialGradient>
<radialGradient id="paint1_radial_15_89" cx="0" cy="0" r="1" gradientUnits="userSpaceOnUse" gradientTransform="translate(610.933 603.111) rotate(-110.171) scale(720.768 901.584)">
<stop/>
<stop offset="1" stop-color="white" stop-opacity="0.31"/>
</radialGradient>
</defs>
</svg>
