<svg width="1080" height="1080" viewBox="0 0 1080 1080" fill="none" xmlns="http://www.w3.org/2000/svg">
<g clip-path="url(#clip0_4_80)">
<rect width="1080" height="1080" fill="white"/>
<rect width="1080" height="1080" fill="black"/>
<g opacity="0.8" clip-path="url(#clip1_4_80)">
<path d="M1080 0H0V1080H1080V0Z" fill="#05085A" fill-opacity="0.31121"/>
<mask id="mask0_4_80" style="mask-type:luminance" maskUnits="userSpaceOnUse" x="0" y="0" width="1080" height="1080">
<path d="M1080 0H0V1080H1080V0Z" fill="white"/>
</mask>
<g mask="url(#mask0_4_80)">
<g filter="url(#filter0_f_4_80)">
<path d="M450.782 340.85H91V643.807H450.782V340.85Z" fill="black"/>
<path d="M650 175H262.136V593.589H650V175Z" fill="#907CFF"/>
</g>
</g>
</g>
<g opacity="0.4" filter="url(#filter1_f_4_80)">
<path d="M743.019 485.71C724.829 495.083 706.539 504.266 688.173 513.289C689.688 522.084 690.48 531.122 690.48 540.343C690.48 627.993 619.179 699.294 531.529 699.294C480.962 699.294 435.839 675.56 406.714 638.645C387.701 646.267 368.611 653.707 349.446 660.94C357.433 672.963 366.692 684.286 377.139 694.733C418.379 735.973 473.21 758.686 531.529 758.686C589.848 758.686 644.679 735.973 685.919 694.733C727.159 653.493 749.872 598.662 749.872 540.343C749.872 521.657 747.542 503.337 743.019 485.71Z" fill="url(#paint0_radial_4_80)"/>
</g>
<path d="M743.019 485.71C724.829 495.083 706.539 504.266 688.173 513.289C689.688 522.084 690.48 531.122 690.48 540.343C690.48 627.993 619.179 699.294 531.529 699.294C480.962 699.294 435.839 675.56 406.714 638.645C387.701 646.267 368.611 653.707 349.446 660.94C357.433 672.963 366.692 684.286 377.139 694.733C418.379 735.973 473.21 758.686 531.529 758.686C589.848 758.686 644.679 735.973 685.919 694.733C727.159 653.493 749.872 598.662 749.872 540.343C749.872 521.657 747.542 503.337 743.019 485.71Z" fill="url(#paint1_radial_4_80)"/>
<path opacity="0.8" d="M531.155 394.72C450.961 394.72 385.714 459.967 385.714 540.161C385.714 563.144 391.075 584.893 400.602 604.235C403.595 602.841 406.595 601.448 409.588 600.062C400.64 581.991 395.614 561.651 395.614 540.161C395.614 465.427 456.421 404.62 531.155 404.62C588.154 404.62 637.051 439.985 657.041 489.925C660.071 488.622 663.11 487.328 666.148 486.041C644.643 432.568 592.236 394.72 531.155 394.72ZM675.104 519.311C671.974 520.834 668.852 522.35 665.722 523.865C666.369 529.211 666.697 534.648 666.697 540.161C666.697 614.896 605.898 675.703 531.155 675.703C490.498 675.703 453.961 657.701 429.09 629.258C425.876 630.576 422.663 631.885 419.442 633.188C446.14 665.201 486.31 685.602 531.155 685.602C611.358 685.602 676.596 620.356 676.596 540.161C676.596 533.087 676.086 526.127 675.104 519.311Z" fill="white"/>
<path d="M772.006 442.46C759.275 447.584 746.559 452.77 733.866 458.001C723.297 462.356 712.743 466.742 702.205 471.151C694.454 474.395 686.702 477.661 678.966 480.936C655.384 422.632 598.185 381.392 531.528 381.392C443.886 381.392 372.577 452.701 372.577 540.343C372.577 565.364 378.387 589.053 388.735 610.129C382.575 613 376.423 615.886 370.278 618.787C358.475 624.345 346.696 629.942 334.932 635.584C325.162 640.267 315.408 644.973 305.669 649.717C322.87 637.594 322.665 618.406 321.043 598.761C315.865 579.969 313.185 560.369 313.185 540.343C313.185 482.024 335.899 427.193 377.138 385.953C418.378 344.714 473.209 322 531.528 322C589.847 322 644.678 344.714 685.918 385.953C696.624 396.659 706.088 408.286 714.221 420.652C729.381 438.95 748.607 448.841 772.006 442.46Z" fill="white"/>
<g opacity="0.5" filter="url(#filter2_f_4_80)">
<path d="M881 400.162C848.227 417.249 815.219 433.856 782.028 450.082C767.614 457.133 753.169 464.115 738.686 471.029C720.625 479.664 702.518 488.2 684.373 496.652C680.231 498.586 676.088 500.512 671.946 502.431C668.908 503.84 665.87 505.248 662.824 506.649C623.313 524.909 583.642 542.825 543.917 560.582C502.244 578.994 460.471 597.253 418.546 615.124C415.462 616.442 412.379 617.751 409.295 619.061C405.092 620.85 400.888 622.624 396.678 624.406C378.22 632.203 359.733 639.917 341.199 647.524C333.021 650.889 324.836 654.224 316.643 657.544C277.634 673.352 238.443 688.679 199 703.368C234.3 684.979 269.883 667.138 305.67 649.717C315.409 644.973 325.163 640.267 334.932 635.584C346.697 629.942 358.476 624.345 370.279 618.787C376.423 615.886 382.576 613 388.736 610.129C392.817 608.218 396.898 606.314 400.987 604.411C403.98 603.017 406.98 601.624 409.972 600.238C451.867 580.821 493.937 561.793 536.075 542.947C576.408 525.114 616.825 507.434 657.403 490.111C660.433 488.809 663.471 487.514 666.509 486.228C670.659 484.453 674.809 482.694 678.967 480.936C686.703 477.661 694.454 474.395 702.206 471.151C712.744 466.742 723.298 462.356 733.867 458.001C746.56 452.77 759.276 447.584 772.007 442.46C808.153 427.894 844.473 413.746 881 400.162Z" fill="white"/>
</g>
<path d="M881 400.162C848.227 417.249 815.219 433.856 782.028 450.082C767.614 457.133 753.169 464.115 738.686 471.029C720.625 479.664 702.518 488.2 684.373 496.652C680.231 498.586 676.088 500.512 671.946 502.431C668.908 503.84 665.87 505.248 662.824 506.649C623.313 524.909 583.642 542.825 543.917 560.582C502.244 578.994 460.471 597.253 418.546 615.124C415.462 616.442 412.379 617.751 409.295 619.061C405.092 620.85 400.888 622.624 396.678 624.406C378.22 632.203 359.733 639.917 341.199 647.524C333.021 650.889 324.836 654.224 316.643 657.544C277.634 673.352 238.443 688.679 199 703.368C234.3 684.979 269.883 667.138 305.67 649.717C315.409 644.973 325.163 640.267 334.932 635.584C346.697 629.942 358.476 624.345 370.279 618.787C376.423 615.886 382.576 613 388.736 610.129C392.817 608.218 396.898 606.314 400.987 604.411C403.98 603.017 406.98 601.624 409.972 600.238C451.867 580.821 493.937 561.793 536.075 542.947C576.408 525.114 616.825 507.434 657.403 490.111C660.433 488.809 663.471 487.514 666.509 486.228C670.659 484.453 674.809 482.694 678.967 480.936C686.703 477.661 694.454 474.395 702.206 471.151C712.744 466.742 723.298 462.356 733.867 458.001C746.56 452.77 759.276 447.584 772.007 442.46C808.153 427.894 844.473 413.746 881 400.162Z" fill="white"/>
<g filter="url(#filter3_f_4_80)">
<path d="M321.746 597.72C328.53 630.065 314.808 644.89 307.099 648.259C322.26 647.136 353.275 640.173 356.05 621.305C358.826 602.437 329.455 563.278 314.422 546.058C314.037 549.801 314.962 565.375 321.746 597.72Z" fill="url(#paint2_linear_4_80)"/>
</g>
<g filter="url(#filter4_f_4_80)">
<path d="M706.121 411.85C733.913 453.349 766.587 446.634 773.889 443.45C763.844 453.405 726.098 475.43 711.177 462.654C679.851 435.835 679.32 401.282 674.901 379.108C678.07 381.348 687.216 383.623 706.121 411.85Z" fill="url(#paint3_linear_4_80)"/>
</g>
</g>
<defs>
<filter id="filter0_f_4_80" x="-284" y="-200" width="1309" height="1218.81" filterUnits="userSpaceOnUse" color-interpolation-filters="sRGB">
<feFlood flood-opacity="0" result="BackgroundImageFix"/>
<feBlend mode="normal" in="SourceGraphic" in2="BackgroundImageFix" result="shape"/>
<feGaussianBlur stdDeviation="187.5" result="effect1_foregroundBlur_4_80"/>
</filter>
<filter id="filter1_f_4_80" x="324.446" y="460.71" width="450.427" height="322.977" filterUnits="userSpaceOnUse" color-interpolation-filters="sRGB">
<feFlood flood-opacity="0" result="BackgroundImageFix"/>
<feBlend mode="normal" in="SourceGraphic" in2="BackgroundImageFix" result="shape"/>
<feGaussianBlur stdDeviation="12.5" result="effect1_foregroundBlur_4_80"/>
</filter>
<filter id="filter2_f_4_80" x="173" y="374.162" width="734" height="355.206" filterUnits="userSpaceOnUse" color-interpolation-filters="sRGB">
<feFlood flood-opacity="0" result="BackgroundImageFix"/>
<feBlend mode="normal" in="SourceGraphic" in2="BackgroundImageFix" result="shape"/>
<feGaussianBlur stdDeviation="13" result="effect1_foregroundBlur_4_80"/>
</filter>
<filter id="filter3_f_4_80" x="276.099" y="515.058" width="111.135" height="164.202" filterUnits="userSpaceOnUse" color-interpolation-filters="sRGB">
<feFlood flood-opacity="0" result="BackgroundImageFix"/>
<feBlend mode="normal" in="SourceGraphic" in2="BackgroundImageFix" result="shape"/>
<feGaussianBlur stdDeviation="15.5" result="effect1_foregroundBlur_4_80"/>
</filter>
<filter id="filter4_f_4_80" x="644.901" y="349.108" width="158.987" height="147.426" filterUnits="userSpaceOnUse" color-interpolation-filters="sRGB">
<feFlood flood-opacity="0" result="BackgroundImageFix"/>
<feBlend mode="normal" in="SourceGraphic" in2="BackgroundImageFix" result="shape"/>
<feGaussianBlur stdDeviation="15" result="effect1_foregroundBlur_4_80"/>
</filter>
<radialGradient id="paint0_radial_4_80" cx="0" cy="0" r="1" gradientUnits="userSpaceOnUse" gradientTransform="translate(627.5 741) rotate(-116.494) scale(358.666 343.5)">
<stop stop-color="white"/>
<stop offset="1" stop-color="white" stop-opacity="0"/>
</radialGradient>
<radialGradient id="paint1_radial_4_80" cx="0" cy="0" r="1" gradientUnits="userSpaceOnUse" gradientTransform="translate(633.404 772.713) rotate(-113.962) scale(408.856 511.425)">
<stop stop-color="white"/>
<stop offset="1" stop-color="white" stop-opacity="0.31"/>
</radialGradient>
<linearGradient id="paint2_linear_4_80" x1="344" y1="648" x2="307" y2="508" gradientUnits="userSpaceOnUse">
<stop stop-color="white"/>
<stop offset="1" stop-color="white" stop-opacity="0"/>
</linearGradient>
<linearGradient id="paint3_linear_4_80" x1="722" y1="467.5" x2="686" y2="399.5" gradientUnits="userSpaceOnUse">
<stop stop-color="white"/>
<stop offset="1" stop-color="white" stop-opacity="0"/>
</linearGradient>
<clipPath id="clip0_4_80">
<rect width="1080" height="1080" fill="white"/>
</clipPath>
<clipPath id="clip1_4_80">
<rect width="1080" height="1080" fill="white"/>
</clipPath>
</defs>
</svg>
