<svg width="1080" height="1080" viewBox="0 0 1080 1080" fill="none" xmlns="http://www.w3.org/2000/svg">
<rect width="1080" height="1080" fill="white"/>
<g filter="url(#filter0_d_15_58)">
<path d="M782.056 474.318C760.353 485.502 738.532 496.458 716.62 507.223C718.428 517.715 719.373 528.499 719.373 539.5C719.373 644.073 634.305 729.141 529.732 729.141C469.402 729.141 415.567 700.824 380.818 656.782C358.134 665.876 335.359 674.751 312.493 683.382C322.023 697.726 333.07 711.235 345.534 723.699C394.736 772.901 460.154 800 529.732 800C599.311 800 664.729 772.901 713.931 723.699C763.133 674.497 790.232 609.079 790.232 539.5C790.232 517.207 787.453 495.349 782.056 474.318Z" fill="url(#paint0_radial_15_58)"/>
<path opacity="0.8" d="M529.289 365.761C433.611 365.761 355.767 443.604 355.767 539.283C355.767 566.703 362.163 592.65 373.529 615.727C377.1 614.065 380.679 612.402 384.25 610.749C373.574 589.189 367.578 564.922 367.578 539.283C367.578 450.119 440.125 377.572 529.289 377.572C597.293 377.572 655.631 419.764 679.48 479.346C683.096 477.793 686.721 476.248 690.346 474.713C664.689 410.915 602.163 365.761 529.289 365.761ZM701.03 514.407C697.296 516.224 693.571 518.032 689.837 519.84C690.609 526.218 691 532.705 691 539.283C691 628.447 618.462 700.994 529.289 700.994C480.782 700.994 437.19 679.516 407.518 645.582C403.683 647.154 399.849 648.716 396.006 650.27C427.86 688.465 475.785 712.805 529.289 712.805C624.977 712.805 702.811 634.961 702.811 539.283C702.811 530.842 702.202 522.538 701.03 514.407Z" fill="black"/>
<path d="M816.641 422.718C801.452 428.832 786.28 435.018 771.136 441.259C758.527 446.456 745.936 451.689 733.363 456.949C724.115 460.819 714.866 464.716 705.637 468.622C677.502 399.062 609.258 349.86 529.732 349.86C425.169 349.86 340.092 434.937 340.092 539.5C340.092 569.352 347.023 597.614 359.369 622.76C352.02 626.185 344.679 629.628 337.348 633.089C323.267 639.721 309.213 646.398 295.178 653.13C283.522 658.717 271.885 664.331 260.266 669.991C280.788 655.528 280.542 632.635 278.607 609.197C272.43 586.776 269.232 563.392 269.232 539.5C269.232 469.921 296.331 404.503 345.533 355.301C394.735 306.099 460.153 279 529.732 279C599.311 279 664.729 306.099 713.931 355.301C726.704 368.074 737.996 381.946 747.698 396.7C765.786 418.53 788.724 430.331 816.641 422.718Z" fill="black"/>
<path d="M946.677 372.253C907.577 392.639 868.196 412.452 828.596 431.811C811.399 440.224 794.166 448.554 776.887 456.803C755.338 467.105 733.735 477.289 712.087 487.373C707.145 489.68 702.203 491.979 697.261 494.268C693.636 495.949 690.011 497.629 686.377 499.301C639.238 521.086 591.907 542.462 544.513 563.647C494.793 585.613 444.955 607.398 394.935 628.719C391.256 630.291 387.577 631.854 383.898 633.416C378.883 635.551 373.868 637.668 368.844 639.794C346.823 649.096 324.766 658.299 302.654 667.374C292.897 671.39 283.132 675.369 273.357 679.33C226.816 698.189 180.058 716.476 133 734.001C175.116 712.061 217.568 690.776 260.266 669.991C271.885 664.331 283.522 658.717 295.178 653.13C309.213 646.398 323.267 639.721 337.348 633.089C344.68 629.628 352.02 626.185 359.369 622.76C364.239 620.48 369.108 618.209 373.986 615.938C377.557 614.275 381.136 612.613 384.706 610.959C434.689 587.794 484.882 565.091 535.156 542.607C583.277 521.331 631.497 500.236 679.909 479.569C683.525 478.016 687.15 476.471 690.774 474.936C695.725 472.819 700.676 470.721 705.637 468.622C714.867 464.716 724.115 460.819 733.363 456.948C745.936 451.689 758.527 446.456 771.136 441.259C786.28 435.018 801.452 428.832 816.641 422.718C859.765 405.339 903.099 388.46 946.677 372.253Z" fill="black"/>
</g>
<defs>
<filter id="filter0_d_15_58" x="131" y="277" width="853.677" height="561" filterUnits="userSpaceOnUse" color-interpolation-filters="sRGB">
<feFlood flood-opacity="0" result="BackgroundImageFix"/>
<feColorMatrix in="SourceAlpha" type="matrix" values="0 0 0 0 0 0 0 0 0 0 0 0 0 0 0 0 0 0 127 0" result="hardAlpha"/>
<feOffset dx="18" dy="18"/>
<feGaussianBlur stdDeviation="10"/>
<feComposite in2="hardAlpha" operator="out"/>
<feColorMatrix type="matrix" values="0 0 0 0 0 0 0 0 0 0 0 0 0 0 0 0 0 0 0.26 0"/>
<feBlend mode="normal" in2="BackgroundImageFix" result="effect1_dropShadow_15_58"/>
<feBlend mode="normal" in="SourceGraphic" in2="effect1_dropShadow_15_58" result="shape"/>
</filter>
<radialGradient id="paint0_radial_15_58" cx="0" cy="0" r="1" gradientUnits="userSpaceOnUse" gradientTransform="translate(619.267 771.056) rotate(-110.171) scale(805.837 1008)">
<stop/>
<stop offset="1" stop-color="white" stop-opacity="0.31"/>
</radialGradient>
</defs>
</svg>
